<mxfile host="app.diagrams.net" agent="Mozilla/5.0 (Windows NT 10.0; Win64; x64) AppleWebKit/537.36 (KHTML, like Gecko) Chrome/134.0.0.0 Safari/537.36" version="26.1.1">
  <diagram name="Page-1" id="Wt7EIqEQvQsSyRAGQnAF">
    <mxGraphModel dx="1447" dy="1146" grid="0" gridSize="10" guides="1" tooltips="1" connect="1" arrows="1" fold="1" page="0" pageScale="1" pageWidth="827" pageHeight="1169" math="0" shadow="0">
      <root>
        <mxCell id="0" />
        <mxCell id="1" parent="0" />
        <mxCell id="dYcZMjiuiEGgzMXuPs8u-12" style="edgeStyle=none;curved=1;rounded=0;orthogonalLoop=1;jettySize=auto;html=1;exitX=0.5;exitY=1;exitDx=0;exitDy=0;fontSize=12;startSize=8;endSize=8;" edge="1" parent="1" source="dYcZMjiuiEGgzMXuPs8u-11">
          <mxGeometry relative="1" as="geometry">
            <mxPoint x="-216.04014766958937" y="76.72727272727252" as="targetPoint" />
          </mxGeometry>
        </mxCell>
        <mxCell id="dYcZMjiuiEGgzMXuPs8u-11" value="START" style="ellipse;whiteSpace=wrap;html=1;" vertex="1" parent="1">
          <mxGeometry x="-276" y="-27" width="120" height="80" as="geometry" />
        </mxCell>
        <mxCell id="dYcZMjiuiEGgzMXuPs8u-14" style="edgeStyle=none;curved=1;rounded=0;orthogonalLoop=1;jettySize=auto;html=1;exitX=0.5;exitY=1;exitDx=0;exitDy=0;fontSize=12;startSize=8;endSize=8;" edge="1" parent="1">
          <mxGeometry relative="1" as="geometry">
            <mxPoint x="-216.09090909090912" y="185.81818181818176" as="targetPoint" />
            <mxPoint x="-216.09090909090924" y="136.72727272727252" as="sourcePoint" />
          </mxGeometry>
        </mxCell>
        <mxCell id="dYcZMjiuiEGgzMXuPs8u-48" style="edgeStyle=none;curved=1;rounded=0;orthogonalLoop=1;jettySize=auto;html=1;exitX=1;exitY=0.5;exitDx=0;exitDy=0;fontSize=12;startSize=8;endSize=8;" edge="1" parent="1" source="dYcZMjiuiEGgzMXuPs8u-16">
          <mxGeometry relative="1" as="geometry">
            <mxPoint x="-112.4545454545455" y="109.45454545454527" as="targetPoint" />
          </mxGeometry>
        </mxCell>
        <mxCell id="dYcZMjiuiEGgzMXuPs8u-16" value="Read format string and additional arguments" style="rounded=0;whiteSpace=wrap;html=1;" vertex="1" parent="1">
          <mxGeometry x="-276" y="79" width="120" height="60" as="geometry" />
        </mxCell>
        <mxCell id="dYcZMjiuiEGgzMXuPs8u-18" style="edgeStyle=none;curved=1;rounded=0;orthogonalLoop=1;jettySize=auto;html=1;fontSize=12;startSize=8;endSize=8;" edge="1" parent="1" source="dYcZMjiuiEGgzMXuPs8u-17" target="dYcZMjiuiEGgzMXuPs8u-19">
          <mxGeometry relative="1" as="geometry">
            <mxPoint x="-216" y="301.27272727272725" as="targetPoint" />
          </mxGeometry>
        </mxCell>
        <mxCell id="dYcZMjiuiEGgzMXuPs8u-17" value="Initialize the displayed character counter to zero" style="rounded=0;whiteSpace=wrap;html=1;" vertex="1" parent="1">
          <mxGeometry x="-276" y="188" width="120" height="60" as="geometry" />
        </mxCell>
        <mxCell id="dYcZMjiuiEGgzMXuPs8u-22" style="edgeStyle=none;curved=1;rounded=0;orthogonalLoop=1;jettySize=auto;html=1;fontSize=12;startSize=8;endSize=8;" edge="1" parent="1" source="dYcZMjiuiEGgzMXuPs8u-19">
          <mxGeometry relative="1" as="geometry">
            <mxPoint x="-219.5" y="343.9999999999998" as="targetPoint" />
          </mxGeometry>
        </mxCell>
        <mxCell id="dYcZMjiuiEGgzMXuPs8u-23" style="edgeStyle=none;curved=1;rounded=0;orthogonalLoop=1;jettySize=auto;html=1;exitX=1;exitY=0.5;exitDx=0;exitDy=0;fontSize=12;startSize=8;endSize=8;" edge="1" parent="1" source="dYcZMjiuiEGgzMXuPs8u-19">
          <mxGeometry relative="1" as="geometry">
            <mxPoint x="-130.63636363636374" y="293.090909090909" as="targetPoint" />
          </mxGeometry>
        </mxCell>
        <mxCell id="dYcZMjiuiEGgzMXuPs8u-19" value="Is it a character %&lt;div&gt;?&lt;/div&gt;" style="shape=parallelogram;perimeter=parallelogramPerimeter;whiteSpace=wrap;html=1;fixedSize=1;" vertex="1" parent="1">
          <mxGeometry x="-284" y="270" width="129" height="47" as="geometry" />
        </mxCell>
        <mxCell id="dYcZMjiuiEGgzMXuPs8u-26" style="edgeStyle=none;curved=1;rounded=0;orthogonalLoop=1;jettySize=auto;html=1;exitX=1;exitY=0.5;exitDx=0;exitDy=0;fontSize=12;startSize=8;endSize=8;" edge="1" parent="1" source="dYcZMjiuiEGgzMXuPs8u-24">
          <mxGeometry relative="1" as="geometry">
            <mxPoint x="-66.09090909090912" y="294.90909090909076" as="targetPoint" />
          </mxGeometry>
        </mxCell>
        <mxCell id="dYcZMjiuiEGgzMXuPs8u-46" style="edgeStyle=none;curved=1;rounded=0;orthogonalLoop=1;jettySize=auto;html=1;exitX=0.5;exitY=0;exitDx=0;exitDy=0;fontSize=12;startSize=8;endSize=8;" edge="1" parent="1" source="dYcZMjiuiEGgzMXuPs8u-24">
          <mxGeometry relative="1" as="geometry">
            <mxPoint x="-112" y="110" as="targetPoint" />
          </mxGeometry>
        </mxCell>
        <mxCell id="dYcZMjiuiEGgzMXuPs8u-24" value="NO" style="whiteSpace=wrap;html=1;aspect=fixed;" vertex="1" parent="1">
          <mxGeometry x="-134" y="272" width="45" height="45" as="geometry" />
        </mxCell>
        <mxCell id="dYcZMjiuiEGgzMXuPs8u-28" style="edgeStyle=none;curved=1;rounded=0;orthogonalLoop=1;jettySize=auto;html=1;exitX=1;exitY=0.5;exitDx=0;exitDy=0;fontSize=12;startSize=8;endSize=8;" edge="1" parent="1" source="dYcZMjiuiEGgzMXuPs8u-25" target="dYcZMjiuiEGgzMXuPs8u-29">
          <mxGeometry relative="1" as="geometry">
            <mxPoint x="-168.81818181818187" y="365.81818181818176" as="targetPoint" />
          </mxGeometry>
        </mxCell>
        <mxCell id="dYcZMjiuiEGgzMXuPs8u-30" style="edgeStyle=none;curved=1;rounded=0;orthogonalLoop=1;jettySize=auto;html=1;exitX=0.5;exitY=1;exitDx=0;exitDy=0;fontSize=12;startSize=8;endSize=8;" edge="1" parent="1" source="dYcZMjiuiEGgzMXuPs8u-25">
          <mxGeometry relative="1" as="geometry">
            <mxPoint x="-219.4985314157194" y="423.00272727272727" as="targetPoint" />
          </mxGeometry>
        </mxCell>
        <mxCell id="dYcZMjiuiEGgzMXuPs8u-25" value="YES" style="whiteSpace=wrap;html=1;aspect=fixed;" vertex="1" parent="1">
          <mxGeometry x="-242" y="343" width="45" height="45" as="geometry" />
        </mxCell>
        <mxCell id="dYcZMjiuiEGgzMXuPs8u-27" value="_printf/n" style="rounded=0;whiteSpace=wrap;html=1;" vertex="1" parent="1">
          <mxGeometry x="-67" y="270" width="71" height="49" as="geometry" />
        </mxCell>
        <mxCell id="dYcZMjiuiEGgzMXuPs8u-29" value="Identify the type of specifier" style="rounded=0;whiteSpace=wrap;html=1;" vertex="1" parent="1">
          <mxGeometry x="-358" y="343" width="87.5" height="50" as="geometry" />
        </mxCell>
        <mxCell id="dYcZMjiuiEGgzMXuPs8u-33" style="edgeStyle=none;curved=1;rounded=0;orthogonalLoop=1;jettySize=auto;html=1;exitX=1;exitY=0.5;exitDx=0;exitDy=0;fontSize=12;startSize=8;endSize=8;" edge="1" parent="1" source="dYcZMjiuiEGgzMXuPs8u-32">
          <mxGeometry relative="1" as="geometry">
            <mxPoint x="-140.63636363636374" y="451.27272727272725" as="targetPoint" />
          </mxGeometry>
        </mxCell>
        <mxCell id="dYcZMjiuiEGgzMXuPs8u-34" style="edgeStyle=none;curved=1;rounded=0;orthogonalLoop=1;jettySize=auto;html=1;exitX=0.5;exitY=1;exitDx=0;exitDy=0;fontSize=12;startSize=8;endSize=8;" edge="1" parent="1" source="dYcZMjiuiEGgzMXuPs8u-32">
          <mxGeometry relative="1" as="geometry">
            <mxPoint x="-219.72727272727275" y="515.8181818181818" as="targetPoint" />
          </mxGeometry>
        </mxCell>
        <mxCell id="dYcZMjiuiEGgzMXuPs8u-32" value="Is it %c, %s,&lt;div&gt;or %% ?&lt;/div&gt;" style="shape=parallelogram;perimeter=parallelogramPerimeter;whiteSpace=wrap;html=1;fixedSize=1;" vertex="1" parent="1">
          <mxGeometry x="-279.5" y="421" width="120" height="60" as="geometry" />
        </mxCell>
        <mxCell id="dYcZMjiuiEGgzMXuPs8u-42" style="edgeStyle=none;curved=1;rounded=0;orthogonalLoop=1;jettySize=auto;html=1;exitX=0;exitY=0.5;exitDx=0;exitDy=0;fontSize=12;startSize=8;endSize=8;" edge="1" parent="1" source="dYcZMjiuiEGgzMXuPs8u-35">
          <mxGeometry relative="1" as="geometry">
            <mxPoint x="-278.818181818182" y="536.7272727272725" as="targetPoint" />
          </mxGeometry>
        </mxCell>
        <mxCell id="dYcZMjiuiEGgzMXuPs8u-45" style="edgeStyle=none;curved=1;rounded=0;orthogonalLoop=1;jettySize=auto;html=1;exitX=0.5;exitY=1;exitDx=0;exitDy=0;fontSize=12;startSize=8;endSize=8;" edge="1" parent="1" source="dYcZMjiuiEGgzMXuPs8u-35">
          <mxGeometry relative="1" as="geometry">
            <mxPoint x="-219.72727272727275" y="595.8181818181818" as="targetPoint" />
          </mxGeometry>
        </mxCell>
        <mxCell id="dYcZMjiuiEGgzMXuPs8u-35" value="YES" style="whiteSpace=wrap;html=1;aspect=fixed;" vertex="1" parent="1">
          <mxGeometry x="-242" y="514" width="45" height="45" as="geometry" />
        </mxCell>
        <mxCell id="dYcZMjiuiEGgzMXuPs8u-39" style="edgeStyle=none;curved=1;rounded=0;orthogonalLoop=1;jettySize=auto;html=1;exitX=1;exitY=0.5;exitDx=0;exitDy=0;fontSize=12;startSize=8;endSize=8;" edge="1" parent="1" source="dYcZMjiuiEGgzMXuPs8u-36">
          <mxGeometry relative="1" as="geometry">
            <mxPoint x="-63" y="451" as="targetPoint" />
          </mxGeometry>
        </mxCell>
        <mxCell id="dYcZMjiuiEGgzMXuPs8u-49" style="edgeStyle=none;curved=1;rounded=0;orthogonalLoop=1;jettySize=auto;html=1;exitX=0.5;exitY=0;exitDx=0;exitDy=0;fontSize=12;startSize=8;endSize=8;" edge="1" parent="1" source="dYcZMjiuiEGgzMXuPs8u-36">
          <mxGeometry relative="1" as="geometry">
            <mxPoint x="-117.90909090909099" y="320.36363636363626" as="targetPoint" />
          </mxGeometry>
        </mxCell>
        <mxCell id="dYcZMjiuiEGgzMXuPs8u-36" value="NO" style="whiteSpace=wrap;html=1;aspect=fixed;" vertex="1" parent="1">
          <mxGeometry x="-140" y="428.5" width="45" height="45" as="geometry" />
        </mxCell>
        <mxCell id="dYcZMjiuiEGgzMXuPs8u-41" value="Write the corresponding value" style="rounded=0;whiteSpace=wrap;html=1;" vertex="1" parent="1">
          <mxGeometry x="-403.99727272727273" y="509.00181818181807" width="120" height="60" as="geometry" />
        </mxCell>
        <mxCell id="dYcZMjiuiEGgzMXuPs8u-43" value="Handle an error or&amp;nbsp;&lt;div&gt;ignore it&lt;/div&gt;" style="rounded=0;whiteSpace=wrap;html=1;" vertex="1" parent="1">
          <mxGeometry x="-63" y="425" width="93" height="54" as="geometry" />
        </mxCell>
        <mxCell id="dYcZMjiuiEGgzMXuPs8u-50" style="edgeStyle=none;curved=1;rounded=0;orthogonalLoop=1;jettySize=auto;html=1;exitX=0.5;exitY=1;exitDx=0;exitDy=0;fontSize=12;startSize=8;endSize=8;" edge="1" parent="1" source="dYcZMjiuiEGgzMXuPs8u-44" target="dYcZMjiuiEGgzMXuPs8u-51">
          <mxGeometry relative="1" as="geometry">
            <mxPoint x="-215.18181818181824" y="720.3636363636363" as="targetPoint" />
          </mxGeometry>
        </mxCell>
        <mxCell id="dYcZMjiuiEGgzMXuPs8u-44" value="Use &#39;wite&#39; to display the value and increment the counter" style="whiteSpace=wrap;html=1;" vertex="1" parent="1">
          <mxGeometry x="-275" y="598" width="120" height="60" as="geometry" />
        </mxCell>
        <mxCell id="dYcZMjiuiEGgzMXuPs8u-52" style="edgeStyle=none;curved=1;rounded=0;orthogonalLoop=1;jettySize=auto;html=1;exitX=1;exitY=0.5;exitDx=0;exitDy=0;fontSize=12;startSize=8;endSize=8;" edge="1" parent="1" source="dYcZMjiuiEGgzMXuPs8u-51">
          <mxGeometry relative="1" as="geometry">
            <mxPoint x="-117.90909090909099" y="724.9090909090908" as="targetPoint" />
          </mxGeometry>
        </mxCell>
        <mxCell id="dYcZMjiuiEGgzMXuPs8u-53" style="edgeStyle=none;curved=1;rounded=0;orthogonalLoop=1;jettySize=auto;html=1;exitX=0.5;exitY=1;exitDx=0;exitDy=0;fontSize=12;startSize=8;endSize=8;" edge="1" parent="1" source="dYcZMjiuiEGgzMXuPs8u-51">
          <mxGeometry relative="1" as="geometry">
            <mxPoint x="-218.81818181818198" y="813.090909090909" as="targetPoint" />
          </mxGeometry>
        </mxCell>
        <mxCell id="dYcZMjiuiEGgzMXuPs8u-51" value="Any character left?" style="shape=parallelogram;perimeter=parallelogramPerimeter;whiteSpace=wrap;html=1;fixedSize=1;" vertex="1" parent="1">
          <mxGeometry x="-289" y="682" width="140" height="85" as="geometry" />
        </mxCell>
        <mxCell id="dYcZMjiuiEGgzMXuPs8u-56" style="edgeStyle=none;curved=1;rounded=0;orthogonalLoop=1;jettySize=auto;html=1;exitX=0.5;exitY=1;exitDx=0;exitDy=0;fontSize=12;startSize=8;endSize=8;" edge="1" parent="1" source="dYcZMjiuiEGgzMXuPs8u-54" target="dYcZMjiuiEGgzMXuPs8u-57">
          <mxGeometry relative="1" as="geometry">
            <mxPoint x="-219.72727272727275" y="891.272727272727" as="targetPoint" />
          </mxGeometry>
        </mxCell>
        <mxCell id="dYcZMjiuiEGgzMXuPs8u-54" value="YES" style="whiteSpace=wrap;html=1;aspect=fixed;" vertex="1" parent="1">
          <mxGeometry x="-242" y="812" width="45" height="45" as="geometry" />
        </mxCell>
        <mxCell id="dYcZMjiuiEGgzMXuPs8u-60" style="edgeStyle=none;curved=1;rounded=0;orthogonalLoop=1;jettySize=auto;html=1;exitX=1;exitY=0.5;exitDx=0;exitDy=0;fontSize=12;startSize=8;endSize=8;" edge="1" parent="1" source="dYcZMjiuiEGgzMXuPs8u-55" target="dYcZMjiuiEGgzMXuPs8u-61">
          <mxGeometry relative="1" as="geometry">
            <mxPoint x="-42.454545454545496" y="724.9090909090908" as="targetPoint" />
          </mxGeometry>
        </mxCell>
        <mxCell id="dYcZMjiuiEGgzMXuPs8u-55" value="NO" style="whiteSpace=wrap;html=1;aspect=fixed;" vertex="1" parent="1">
          <mxGeometry x="-119" y="702" width="45" height="45" as="geometry" />
        </mxCell>
        <mxCell id="dYcZMjiuiEGgzMXuPs8u-58" style="edgeStyle=none;curved=1;rounded=0;orthogonalLoop=1;jettySize=auto;html=1;exitX=0.5;exitY=1;exitDx=0;exitDy=0;fontSize=12;startSize=8;endSize=8;" edge="1" parent="1" source="dYcZMjiuiEGgzMXuPs8u-57" target="dYcZMjiuiEGgzMXuPs8u-59">
          <mxGeometry relative="1" as="geometry">
            <mxPoint x="-219.72727272727275" y="992.181818181818" as="targetPoint" />
          </mxGeometry>
        </mxCell>
        <mxCell id="dYcZMjiuiEGgzMXuPs8u-57" value="Return the counter value" style="rounded=0;whiteSpace=wrap;html=1;" vertex="1" parent="1">
          <mxGeometry x="-279.49727272727273" y="886.002727272727" width="120" height="60" as="geometry" />
        </mxCell>
        <mxCell id="dYcZMjiuiEGgzMXuPs8u-59" value="END" style="ellipse;whiteSpace=wrap;html=1;" vertex="1" parent="1">
          <mxGeometry x="-279.49727272727273" y="979.0018181818181" width="120" height="80" as="geometry" />
        </mxCell>
        <mxCell id="dYcZMjiuiEGgzMXuPs8u-61" value="Return the counter" style="rounded=0;whiteSpace=wrap;html=1;" vertex="1" parent="1">
          <mxGeometry x="-52.00454545454549" y="697.9990909090908" width="120" height="60" as="geometry" />
        </mxCell>
        <mxCell id="dYcZMjiuiEGgzMXuPs8u-62" style="edgeStyle=none;curved=1;rounded=0;orthogonalLoop=1;jettySize=auto;html=1;exitX=0;exitY=1;exitDx=0;exitDy=0;fontSize=12;startSize=8;endSize=8;" edge="1" parent="1" source="dYcZMjiuiEGgzMXuPs8u-61" target="dYcZMjiuiEGgzMXuPs8u-61">
          <mxGeometry relative="1" as="geometry" />
        </mxCell>
      </root>
    </mxGraphModel>
  </diagram>
</mxfile>
